<svg xmlns="http://www.w3.org/2000/svg" viewBox="0 0 512 512" role="img" aria-label="Web KaTrain">
  <defs>
    <linearGradient id="board" x1="76" y1="56" x2="456" y2="456" gradientUnits="userSpaceOnUse">
      <stop offset="0" stop-color="#f5d58a"/>
      <stop offset="0.52" stop-color="#d39a48"/>
      <stop offset="1" stop-color="#8d5f2a"/>
    </linearGradient>
    <radialGradient id="blackStone" cx="36%" cy="28%" r="72%">
      <stop offset="0" stop-color="#596270"/>
      <stop offset="0.36" stop-color="#171b22"/>
      <stop offset="1" stop-color="#05070a"/>
    </radialGradient>
    <radialGradient id="whiteStone" cx="36%" cy="28%" r="72%">
      <stop offset="0" stop-color="#ffffff"/>
      <stop offset="0.5" stop-color="#e7ebf1"/>
      <stop offset="1" stop-color="#aeb7c4"/>
    </radialGradient>
  </defs>
  <rect width="512" height="512" rx="108" fill="#101827"/>
  <rect x="70" y="70" width="372" height="372" rx="58" fill="url(#board)"/>
  <g stroke="#5f3d18" stroke-width="8" opacity="0.58">
    <path d="M144 102v308M218 102v308M292 102v308M366 102v308"/>
    <path d="M102 144h308M102 218h308M102 292h308M102 366h308"/>
  </g>
  <circle cx="218" cy="218" r="72" fill="url(#blackStone)"/>
  <circle cx="292" cy="292" r="72" fill="url(#whiteStone)"/>
  <path d="M139 379l54-25 46 18 58-65 75-30" fill="none" stroke="#38bdf8" stroke-width="18" stroke-linecap="round" stroke-linejoin="round"/>
  <circle cx="139" cy="379" r="18" fill="#38bdf8"/>
  <circle cx="372" cy="277" r="18" fill="#38bdf8"/>
</svg>
